<svg width="112" height="111" viewBox="0 0 112 111" fill="none" xmlns="http://www.w3.org/2000/svg">
<path d="M56.0003 110.835C86.5601 110.835 111.334 86.0611 111.334 55.5013C111.334 24.9416 86.5601 0.167969 56.0003 0.167969C25.4406 0.167969 0.666992 24.9416 0.666992 55.5013C0.666992 86.0611 25.4406 110.835 56.0003 110.835Z" fill="#C8FAD6"/>
<path d="M42.8474 80.7018L23.4395 59.2956C22.7233 58.5057 22.3498 57.4639 22.4012 56.3989C22.4525 55.334 22.9244 54.3329 23.7132 53.6156L29.1058 48.7157C29.8957 47.9995 30.9375 47.626 32.0025 47.6774C33.0675 47.7287 34.0685 48.2006 34.7858 48.9894L46.4744 61.855L78.6658 31.922C79.4468 31.1972 80.4834 30.8118 81.5482 30.8503C82.613 30.8888 83.6191 31.348 84.3458 32.1273L89.3004 37.4651C89.661 37.851 89.9417 38.3043 90.1266 38.799C90.3115 39.2937 90.3969 39.82 90.3778 40.3478C90.3587 40.8756 90.2356 41.3944 90.0155 41.8744C89.7953 42.3545 89.4826 42.7863 89.0951 43.1452L48.5 80.8934C48.1173 81.254 47.667 81.5352 47.1751 81.7209C46.6831 81.9065 46.1593 81.993 45.6338 81.9751C45.1083 81.9573 44.5915 81.8356 44.1132 81.6171C43.635 81.3985 43.2048 81.0874 42.8474 80.7018Z" fill="url(#paint0_linear_5029_49574)"/>
<defs>
<linearGradient id="paint0_linear_5029_49574" x1="22.3965" y1="30.8477" x2="71.5191" y2="96.1628" gradientUnits="userSpaceOnUse">
<stop stop-color="#5BE49B"/>
<stop offset="1" stop-color="#00A76F"/>
</linearGradient>
</defs>
</svg>
