<svg width="20" height="20" viewBox="0 0 20 20" fill="none" xmlns="http://www.w3.org/2000/svg">
<path d="M15.56 19.4338C15.4001 19.4344 15.2423 19.3967 15.1 19.3238L10 16.6538L4.90001 19.3238C4.7344 19.4109 4.54768 19.4498 4.36108 19.436C4.17448 19.4222 3.99548 19.3564 3.84444 19.246C3.69339 19.1356 3.57635 18.985 3.50662 18.8114C3.4369 18.6377 3.41728 18.448 3.45001 18.2638L4.45001 12.6338L0.330007 8.6338C0.201464 8.50552 0.110278 8.34467 0.0662345 8.16849C0.0221906 7.99232 0.0269517 7.80747 0.0800067 7.6338C0.137967 7.45607 0.244583 7.29815 0.387757 7.17796C0.530931 7.05776 0.704929 6.9801 0.890007 6.9538L6.59001 6.1238L9.10001 0.993798C9.18189 0.824727 9.30974 0.68214 9.46892 0.582371C9.62809 0.482603 9.81215 0.429688 10 0.429688C10.1879 0.429688 10.3719 0.482603 10.5311 0.582371C10.6903 0.68214 10.8181 0.824727 10.9 0.993798L13.44 6.1138L19.14 6.9438C19.3251 6.9701 19.4991 7.04776 19.6423 7.16796C19.7854 7.28815 19.892 7.44607 19.95 7.6238C20.0031 7.79747 20.0078 7.98232 19.9638 8.15849C19.9197 8.33467 19.8286 8.49552 19.7 8.6238L15.58 12.6238L16.58 18.2538C16.6157 18.4413 16.597 18.6351 16.5261 18.8122C16.4553 18.9894 16.3352 19.1427 16.18 19.2538C15.9989 19.3807 15.7809 19.444 15.56 19.4338Z" fill="#00A76F"/>
</svg>
