<svg width="24" height="24" viewBox="0 0 24 24" fill="none" xmlns="http://www.w3.org/2000/svg">
<g opacity="0.32">
<path d="M12.5844 7.76958C12.851 7.23366 13.0009 6.62946 13.0009 5.99023C13.0009 5.35101 12.851 4.74681 12.5844 4.21088C13.1306 3.47048 14.0092 2.99023 14.9999 2.99023C16.6568 2.99023 17.9999 4.33338 17.9999 5.99023C17.9999 7.64709 16.6568 8.99023 14.9999 8.99023C14.0092 8.99023 13.1306 8.50998 12.5844 7.76958Z" fill="#637381"/>
<path d="M14.0597 19.756C14.6563 19.9068 15.3119 19.9902 15.9999 19.9902C18.7614 19.9902 20.9999 18.6471 20.9999 16.9902C20.9999 15.3334 18.7614 13.9902 15.9999 13.9902C15.311 13.9902 14.6545 14.0738 14.0573 14.2251C15.2612 14.9435 16.0009 15.918 16.0009 16.9912C16.0009 18.0638 15.2622 19.0377 14.0597 19.756Z" fill="#637381"/>
</g>
<path d="M9.00098 9.99023C11.2101 9.99023 13.001 8.19937 13.001 5.99023C13.001 3.7811 11.2101 1.99023 9.00098 1.99023C6.79184 1.99023 5.00098 3.7811 5.00098 5.99023C5.00098 8.19937 6.79184 9.99023 9.00098 9.99023Z" fill="#637381"/>
<path d="M9.00098 20.9912C12.867 20.9912 16.001 19.2004 16.001 16.9912C16.001 14.7821 12.867 12.9912 9.00098 12.9912C5.13498 12.9912 2.00098 14.7821 2.00098 16.9912C2.00098 19.2004 5.13498 20.9912 9.00098 20.9912Z" fill="#637381"/>
</svg>
