<svg width="24" height="25" viewBox="0 0 24 25" fill="none" xmlns="http://www.w3.org/2000/svg">
<path opacity="0.32" fill-rule="evenodd" clip-rule="evenodd" d="M20.5847 20.2616C21.6665 19.0906 21.6665 17.2046 21.6665 13.4336V11.4336C21.6665 7.66259 21.6665 5.77659 20.5847 4.60559C19.5037 3.43359 17.7628 3.43359 14.2819 3.43359H9.6665L9.6665 21.4336H14.2819C17.7628 21.4336 19.5037 21.4336 20.5847 20.2616Z" fill="#00A76F"/>
<path d="M1.6665 11.4329L1.6665 13.4343C1.6665 17.2078 1.6665 19.095 2.8385 20.2668C3.8125 21.2425 6.0305 21.4066 8.6665 21.4336L8.6665 3.43359C6.0305 3.46061 3.8125 3.62472 2.8385 4.60037C1.6665 5.77215 1.6665 7.65941 1.6665 11.4329Z" fill="#00A76F"/>
</svg>
